<svg width="135" height="108" viewBox="0 0 135 108" fill="none" xmlns="http://www.w3.org/2000/svg">
<path d="M127.529 27.7965C127.551 27.4977 127.562 27.2002 127.562 26.9039C127.561 23.7507 126.33 20.7164 124.121 18.4189C121.911 16.1213 118.888 14.7332 115.668 14.5372C114.103 10.5093 111.39 7.00413 107.849 4.43705C104.309 1.86997 100.089 0.34856 95.6911 0.0530734C91.293 -0.242413 86.9003 0.700407 83.0336 2.76983C79.1669 4.83926 75.9882 7.94855 73.8741 11.7293C73.1953 11.6529 72.5125 11.6139 71.8291 11.6125C69.0947 11.6038 66.3925 12.1886 63.9175 13.3245C61.4424 14.4605 59.2563 16.1194 57.517 18.1814C57.2346 18.5167 57.0591 18.9257 57.0125 19.3575C56.9659 19.7894 57.0501 20.2251 57.2548 20.6106C57.4594 20.9961 57.7755 21.3143 58.1636 21.5257C58.5517 21.7371 58.9949 21.8324 59.438 21.7997C59.6772 21.7824 59.933 21.7836 60.1742 21.7847C65.8393 21.7962 71.3816 23.3988 76.141 26.4016C80.9005 29.4045 84.6765 33.681 87.0194 38.7218C87.2323 39.1804 87.5986 39.5545 88.058 39.7824C88.5174 40.0103 89.0426 40.0786 89.547 39.9758C93.5159 39.1708 97.633 39.4185 101.471 40.6931C105.309 41.9677 108.728 44.2228 111.373 47.2244C111.586 47.4677 111.85 47.663 112.148 47.7969C112.445 47.9308 112.769 48.0001 113.097 48H131.123C131.519 48 131.908 47.8988 132.251 47.7063C132.595 47.5138 132.88 47.2368 133.08 46.9029C134.336 44.8014 134.999 42.4117 135 39.9781C134.989 37.479 134.289 35.029 132.975 32.8855C131.66 30.742 129.779 28.9841 127.529 27.7965Z" fill="#7CC9F2"/>
<path d="M121.448 61.3235C121.019 54.4672 117.993 48.0322 112.987 43.3278C107.98 38.6234 101.37 36.0031 94.5 36C93.2361 36 91.9737 36.0873 90.7218 36.2614C87.8735 30.7679 83.5732 26.1606 78.2887 22.9409C73.0043 19.7212 66.9381 18.0122 60.75 18C60.4028 18 60.0282 18.0023 59.7888 18.0225C52.9725 18.1946 46.37 20.4375 40.8592 24.4529C35.3485 28.4682 31.1904 34.0659 28.938 40.5016C24.2205 40.5892 19.7255 42.5233 16.4183 45.8885C13.1111 49.2537 11.2555 53.7817 11.25 58.5C11.2504 59.1888 11.3107 59.8769 11.3709 60.561C7.97308 62.2374 5.10943 64.8271 3.10101 68.0398C1.09259 71.2525 0.0188041 74.9612 4.89991e-05 78.75C-0.00784844 82.3151 0.939045 85.8172 2.74235 88.8925C2.94097 89.2299 3.22425 89.5095 3.56415 89.7038C3.90405 89.898 4.28879 90.0001 4.68027 90H30.06C30.596 90 31.1144 89.8087 31.5219 89.4604C31.9293 89.1122 32.1991 88.63 32.2826 88.1005C32.9319 84.001 35.0227 80.2677 38.1789 77.572C41.3351 74.8764 45.3496 73.3954 49.5002 73.3954C53.6509 73.3954 57.6654 74.8764 60.8216 77.572C63.9778 80.2677 66.0686 84.001 66.7179 88.1005C66.8014 88.63 67.0712 89.1122 67.4786 89.4604C67.8861 89.8087 68.4045 90 68.9405 90H129.915C130.277 90.0002 130.634 89.9129 130.955 89.7458C131.276 89.5786 131.552 89.3363 131.759 89.0397C133.874 86.0256 135.006 82.4319 135 78.75C134.985 74.7559 133.647 70.8794 131.195 67.7264C128.743 64.5735 125.316 62.3218 121.448 61.3235Z" fill="#9CD5F2"/>
<path d="M72.2455 89.345C72.204 88.5797 72.1228 87.817 72.0023 87.0598C71.1918 82.0247 68.5805 77.4393 64.6382 74.1286C60.6959 70.818 55.6815 68.9993 50.4971 69C45.3126 69.0007 40.2987 70.8206 36.3572 74.1323C32.4158 77.4439 29.8057 82.03 28.9966 87.0653C28.8769 87.8207 28.7961 88.5816 28.7545 89.345C25.3122 90.5676 22.3367 92.8037 20.2334 95.7489C18.13 98.6941 17.001 102.205 17 105.804C17 106.386 17.2353 106.945 17.6541 107.357C18.073 107.769 18.641 108 19.2333 108H81.7667C82.359 108 82.927 107.769 83.3459 107.357C83.7647 106.945 84 106.386 84 105.804C83.999 102.205 82.87 98.6941 80.7666 95.7489C78.6633 92.8037 75.6879 90.5676 72.2455 89.345Z" fill="#B2EBF2"/>
</svg>
