<svg width="123" height="113" viewBox="0 0 123 113" fill="none" xmlns="http://www.w3.org/2000/svg">
<path d="M69.1111 5.38885C69.1111 5.38885 69.1111 -4.00543e-05 74.5 -4.00543e-05C79.8889 -4.00543e-05 79.8889 5.38885 79.8889 5.38885V10.7777C79.8889 10.7777 79.8889 16.1666 74.5 16.1666C69.1111 16.1666 69.1111 10.7777 69.1111 10.7777V5.38885Z" fill="#FFAC33"/>
<path d="M117.611 43.1111C117.611 43.1111 123 43.1111 123 48.5C123 53.8889 117.611 53.8889 117.611 53.8889H112.222C112.222 53.8889 106.833 53.8889 106.833 48.5C106.833 43.1111 112.222 43.1111 112.222 43.1111H117.611Z" fill="#FFAC33"/>
<path d="M36.7778 43.1111C36.7778 43.1111 42.1667 43.1111 42.1667 48.5C42.1667 53.8889 36.7778 53.8889 36.7778 53.8889H31.3889C31.3889 53.8889 26 53.8889 26 48.5C26 43.1111 31.3889 43.1111 31.3889 43.1111H36.7778Z" fill="#FFAC33"/>
<path d="M50.576 19.6534C50.576 19.6534 54.386 23.4633 50.576 27.2732C46.7661 31.0832 42.9561 27.2732 42.9561 27.2732L39.1435 23.4633C39.1435 23.4633 35.3336 19.6534 39.1435 15.8407C42.9561 12.0308 46.7661 15.8407 46.7661 15.8407L50.576 19.6534Z" fill="#FFAC33"/>
<path d="M107.159 76.2338C107.159 76.2338 110.969 80.0437 107.159 83.8537C103.349 87.6636 99.5395 83.8537 99.5395 83.8537L95.7295 80.0437C95.7295 80.0437 91.9196 76.2338 95.7295 72.4239C99.5395 68.6139 103.349 72.4239 103.349 72.4239L107.159 76.2338Z" fill="#FFAC33"/>
<path d="M106.047 27.2704C106.047 27.2704 102.237 31.0804 98.4266 27.2704C94.6167 23.4605 98.4266 19.6505 98.4266 19.6505L102.237 15.8406C102.237 15.8406 106.047 12.0307 109.856 15.8406C113.666 19.6505 109.856 23.4605 109.856 23.4605L106.047 27.2704Z" fill="#FFAC33"/>
<path d="M49.4632 83.8537C49.4632 83.8537 45.6533 87.6636 41.8433 83.8537C38.0334 80.0437 41.8433 76.2338 41.8433 76.2338L45.6533 72.4239C45.6533 72.4239 49.4632 68.6139 53.2732 72.4239C57.0831 76.2338 53.2732 80.0437 53.2732 80.0437L49.4632 83.8537Z" fill="#FFAC33"/>
<path d="M69.1111 86.2222C69.1111 86.2222 69.1111 80.8333 74.5 80.8333C79.8889 80.8333 79.8889 86.2222 79.8889 86.2222V91.6111C79.8889 91.6111 79.8889 97 74.5 97C69.1111 97 69.1111 91.6111 69.1111 91.6111V86.2222Z" fill="#FFAC33"/>
<path d="M101.444 48.5C101.444 33.6186 89.3787 21.5556 74.5 21.5556C59.6186 21.5556 47.5556 33.6186 47.5556 48.5C47.5556 63.3787 59.6186 75.4445 74.5 75.4445C89.3787 75.4445 101.444 63.3787 101.444 48.5Z" fill="#FFAC33"/>
<path d="M86.9235 61.531C86.9384 61.3318 86.9459 61.1335 86.946 60.9359C86.9453 58.8338 86.109 56.8109 84.6075 55.2792C83.106 53.7476 81.0522 52.8222 78.8641 52.6915C77.8008 50.0062 75.9571 47.6694 73.5513 45.958C71.1456 44.2466 68.2786 43.2324 65.3101 43.0354C62.3016 42.8384 59.3169 43.4669 56.6895 44.8466C54.0621 46.2262 51.9023 48.299 50.4658 50.8196C50.0045 50.7686 49.5405 50.7426 49.0762 50.7417C47.2182 50.7359 45.3821 51.1257 43.7003 51.883C42.0186 52.6404 40.5331 53.7463 39.3513 55.121C39.1594 55.3445 39.0402 55.6171 39.0085 55.905C38.9768 56.1929 39.0341 56.4834 39.1731 56.7404C39.3122 56.9974 39.5269 57.2095 39.7907 57.3505C40.0544 57.4914 40.3555 57.5549 40.6566 57.5332C40.8191 57.5216 40.9929 57.5224 41.1568 57.5231C45.0062 57.5308 48.7721 58.5992 52.0061 60.6011C55.2401 62.603 57.8058 65.454 59.3978 68.8145C59.5424 69.1203 59.7913 69.3696 60.1035 69.5216C60.4157 69.6736 60.7725 69.719 61.1152 69.6506C63.8121 69.1139 66.6096 69.279 69.2174 70.1287C71.8253 70.9785 74.1485 72.4818 75.946 74.4829C76.0907 74.6451 76.2702 74.7754 76.4724 74.8646C76.6745 74.9539 76.8944 75.0001 77.117 75H89.3656C89.6346 75 89.8989 74.9325 90.1322 74.8042C90.3656 74.6759 90.5598 74.4912 90.6956 74.2686C91.549 72.8676 91.9992 71.2745 92 69.652C91.9924 67.986 91.517 66.3527 90.6238 64.9237C89.7305 63.4947 88.4523 62.3227 86.9235 61.531Z" fill="#7CC9F2"/>
<path d="M82.7649 84.4841C82.472 79.8179 80.4099 75.4386 76.9983 72.237C73.5866 69.0354 69.0816 67.2521 64.4 67.25C63.5387 67.25 62.6784 67.3094 61.8252 67.4279C59.8841 63.6893 56.9536 60.5538 53.3523 58.3626C49.7511 56.1713 45.6171 55.0083 41.4 55C41.1634 55 40.9081 55.0015 40.745 55.0153C36.0998 55.1325 31.6003 56.6589 27.8448 59.3915C24.0893 62.1242 21.2557 65.9337 19.7207 70.3136C16.5058 70.3732 13.4426 71.6894 11.1888 73.9797C8.93499 76.2699 7.67044 79.3514 7.6667 82.5625C7.66694 83.0312 7.69444 83.4996 7.74904 83.9651C5.43351 85.106 3.48198 86.8685 2.11328 89.0549C0.74458 91.2413 0.0128147 93.7653 3.3392e-05 96.3437C-0.00534857 98.77 0.639942 101.153 1.86886 103.246C2.00422 103.476 2.19727 103.666 2.4289 103.798C2.66054 103.931 2.92273 104 3.18952 104H20.4854C20.8506 104 21.2039 103.87 21.4816 103.633C21.7592 103.396 21.9431 103.068 22 102.707C22.4425 99.9173 23.8673 97.3766 26.0182 95.5421C28.1691 93.7076 30.9049 92.6997 33.7335 92.6997C36.5621 92.6997 39.2979 93.7076 41.4488 95.5421C43.5997 97.3766 45.0245 99.9173 45.467 102.707C45.5239 103.068 45.7078 103.396 45.9854 103.633C46.2631 103.87 46.6164 104 46.9817 104H88.535C88.7816 104 89.0246 103.941 89.2434 103.827C89.4621 103.713 89.6501 103.548 89.7914 103.346C91.2324 101.295 92.0038 98.8495 92 96.3437C91.9898 93.6256 91.078 90.9874 89.4071 88.8416C87.7362 86.6958 85.4004 85.1635 82.7649 84.4841Z" fill="#9CD5F2"/>
<path d="M54.1754 97.6933C54.1406 97.0654 54.0728 96.4396 53.9721 95.8183C53.2947 91.687 51.1121 87.9246 47.817 85.2081C44.522 82.4917 40.3308 80.9995 35.9975 81C31.6643 81.0005 27.4735 82.4938 24.1792 85.2111C20.8849 87.9284 18.7033 91.6913 18.027 95.8228C17.927 96.4426 17.8595 97.0669 17.8246 97.6933C14.9475 98.6965 12.4605 100.531 10.7025 102.948C8.94449 105.364 8.00081 108.245 8 111.198C8 111.676 8.19667 112.134 8.54673 112.472C8.8968 112.81 9.3716 113 9.86667 113H62.1333C62.6284 113 63.1032 112.81 63.4533 112.472C63.8033 112.134 64 111.676 64 111.198C63.9992 108.245 63.0555 105.364 61.2975 102.948C59.5395 100.531 57.0525 98.6965 54.1754 97.6933Z" fill="#B2EBF2"/>
</svg>
