<svg width="50" height="62" viewBox="0 0 50 62" fill="none" xmlns="http://www.w3.org/2000/svg">
<path d="M7.82092 32.1063C7.67261 32.0403 7.51279 32.0043 7.3506 32.0004C7.18841 31.9964 7.02703 32.0246 6.87569 32.0832C6.72436 32.1419 6.58603 32.2299 6.46863 32.3423C6.35122 32.4546 6.25704 32.5891 6.19147 32.738L0.105699 46.4861C-0.0268955 46.7867 -0.0350576 47.1278 0.0830083 47.4344C0.201074 47.741 0.435697 47.988 0.735261 48.121C1.03483 48.2541 1.37479 48.2623 1.68037 48.1438C1.98596 48.0253 2.23212 47.7899 2.36472 47.4894L8.46283 33.7288C8.59101 33.4281 8.59545 33.0888 8.4752 32.7848C8.35494 32.4808 8.11974 32.2369 7.82092 32.1063ZM16.9681 32.1063C16.8198 32.0403 16.66 32.0043 16.4978 32.0004C16.3356 31.9964 16.1742 32.0246 16.0229 32.0832C15.8715 32.1419 15.7332 32.2299 15.6158 32.3423C15.4984 32.4546 15.4042 32.5891 15.3386 32.738L3.17944 60.259C3.11379 60.4079 3.07799 60.5682 3.0741 60.7309C3.07021 60.8936 3.09829 61.0555 3.15675 61.2073C3.21521 61.3591 3.30291 61.4979 3.41482 61.6157C3.52673 61.7335 3.66068 61.8281 3.80901 61.8939C3.95734 61.9598 4.11714 61.9957 4.27931 61.9996C4.44147 62.0035 4.60281 61.9754 4.75412 61.9167C4.90543 61.8581 5.04374 61.7701 5.16116 61.6578C5.27858 61.5455 5.37281 61.4111 5.43846 61.2623L17.6347 33.7412C17.6993 33.5901 17.7334 33.4276 17.7348 33.2632C17.7362 33.0988 17.705 32.9358 17.6429 32.7836C17.5809 32.6314 17.4893 32.4931 17.3734 32.3768C17.2575 32.2606 17.1198 32.1686 16.9681 32.1063ZM35.2748 32.1063C35.1265 32.0403 34.9666 32.0043 34.8045 32.0004C34.6423 31.9964 34.4809 32.0246 34.3296 32.0832C34.1782 32.1419 34.0399 32.2299 33.9225 32.3423C33.8051 32.4546 33.7109 32.5891 33.6453 32.738L21.4368 60.259C21.3711 60.4079 21.3353 60.5682 21.3314 60.7309C21.3275 60.8936 21.3556 61.0555 21.4141 61.2073C21.4725 61.3591 21.5602 61.4979 21.6721 61.6157C21.784 61.7335 21.918 61.8281 22.0663 61.8939C22.2146 61.9598 22.3745 61.9957 22.5366 61.9996C22.6988 62.0035 22.8601 61.9754 23.0114 61.9167C23.1627 61.8581 23.3011 61.7701 23.4185 61.6578C23.5359 61.5455 23.6301 61.4111 23.6958 61.2623L35.892 33.7412C36.0256 33.4422 36.0356 33.1023 35.92 32.7958C35.8043 32.4894 35.5723 32.2415 35.2748 32.1063ZM26.1153 32.1063C25.967 32.0403 25.8071 32.0043 25.6449 32.0004C25.4827 31.9964 25.3214 32.0246 25.17 32.0832C25.0187 32.1419 24.8804 32.2299 24.763 32.3423C24.6456 32.4546 24.5514 32.5891 24.4858 32.738L18.3877 46.4861C18.2551 46.7867 18.2469 47.1278 18.365 47.4344C18.4831 47.741 18.7177 47.988 19.0173 48.121C19.3168 48.2541 19.6568 48.2623 19.9624 48.1438C20.268 48.0253 20.5141 47.7899 20.6467 47.4894L26.7448 33.7288C26.8738 33.4297 26.88 33.0916 26.7621 32.7878C26.6443 32.4841 26.4119 32.2392 26.1153 32.1063Z" fill="#B3E5FC"/>
<path d="M41.7543 15.1283C41.7252 14.5592 41.6682 13.9921 41.5837 13.4291C41.0152 9.68505 39.1834 6.2754 36.4179 3.81361C33.6524 1.35182 30.1348 -0.000491995 26.4979 1.34274e-07C22.8611 0.000492264 19.3438 1.35375 16.579 3.81629C13.8141 6.27883 11.9831 9.68898 11.4155 13.4332C11.3316 13.9949 11.2749 14.5606 11.2457 15.1283C8.83091 16.0374 6.74367 17.7002 5.26818 19.8902C3.79269 22.0802 3.00068 24.691 3 27.3671C3 27.8002 3.16506 28.2155 3.45887 28.5217C3.75267 28.828 4.15116 29 4.56667 29H48.4333C48.8488 29 49.2473 28.828 49.5411 28.5217C49.8349 28.2155 50 27.8002 50 27.3671C49.9993 24.691 49.2073 22.0802 47.7318 19.8902C46.2563 17.7002 44.1691 16.0374 41.7543 15.1283Z" fill="#B2EBF2"/>
</svg>
