<svg width="95" height="98" viewBox="0 0 95 98" fill="none" xmlns="http://www.w3.org/2000/svg">
<path d="M51.1443 51.6712C50.9933 51.6273 50.8321 51.6078 50.67 51.6137C50.5079 51.6196 50.348 51.6509 50.1995 51.7057C50.051 51.7605 49.9167 51.8378 49.8045 51.9332C49.6922 52.0285 49.6041 52.14 49.5452 52.2614L44.076 63.4675C43.9569 63.7124 43.9638 63.9825 44.0952 64.2182C44.2266 64.454 44.4718 64.6361 44.7768 64.7246C45.0817 64.813 45.4215 64.8005 45.7214 64.6899C46.0213 64.5792 46.2567 64.3794 46.3758 64.1344L51.8568 52.9179C51.9715 52.6731 51.961 52.4046 51.8275 52.171C51.694 51.9375 51.4484 51.7578 51.1443 51.6712ZM60.2772 51.161C60.1262 51.1171 59.965 51.0976 59.8029 51.1035C59.6408 51.1094 59.4809 51.1407 59.3324 51.1955C59.1839 51.2503 59.0497 51.3276 58.9374 51.4229C58.8252 51.5183 58.7371 51.6298 58.6782 51.7512L47.7531 74.1822C47.6941 74.3035 47.6655 74.4322 47.6688 74.5611C47.6721 74.6899 47.7073 74.8163 47.7723 74.933C47.8374 75.0497 47.9311 75.1545 48.048 75.2414C48.165 75.3283 48.3029 75.3955 48.4539 75.4393C48.6049 75.4831 48.766 75.5026 48.9281 75.4966C49.0902 75.4907 49.2501 75.4594 49.3985 75.4046C49.547 75.3498 49.6812 75.2725 49.7935 75.1772C49.9058 75.0819 49.9939 74.9705 50.0529 74.8492L61.0149 52.4161C61.0728 52.293 61.0996 52.1627 61.0938 52.0327C61.0879 51.9026 61.0495 51.7755 60.9809 51.6587C60.9122 51.5419 60.8146 51.4377 60.6938 51.3522C60.573 51.2668 60.4314 51.2018 60.2772 51.161ZM78.5554 50.1399C78.4044 50.096 78.2432 50.0765 78.0811 50.0824C77.919 50.0883 77.7591 50.1196 77.6106 50.1744C77.4621 50.2292 77.3279 50.3065 77.2156 50.4018C77.1033 50.4972 77.0152 50.6087 76.9563 50.7301L65.982 73.1638C65.923 73.2851 65.8944 73.4139 65.8977 73.5427C65.901 73.6715 65.9361 73.7979 66.0012 73.9146C66.0663 74.0314 66.16 74.1362 66.2769 74.223C66.3939 74.3099 66.5318 74.3772 66.6828 74.421C66.8338 74.4648 66.9949 74.4842 67.157 74.4783C67.3191 74.4723 67.4789 74.4411 67.6274 74.3863C67.7759 74.3315 67.9101 74.2542 68.0224 74.1589C68.1347 74.0636 68.2228 73.9521 68.2818 73.8308L79.2438 51.3977C79.364 51.1539 79.359 50.8847 79.23 50.6489C79.101 50.4132 78.8584 50.2301 78.5554 50.1399ZM69.4101 50.6508C69.2591 50.6069 69.098 50.5874 68.9358 50.5933C68.7737 50.5992 68.6138 50.6305 68.4653 50.6853C68.3168 50.7401 68.1826 50.8174 68.0703 50.9127C67.9581 51.0081 67.87 51.1196 67.8111 51.241L62.3295 62.4477C62.2104 62.6927 62.2173 62.9628 62.3488 63.1985C62.4802 63.4343 62.7253 63.6164 63.0303 63.7048C63.3353 63.7933 63.6751 63.7808 63.975 63.6701C64.2748 63.5595 64.5102 63.3597 64.6293 63.1147L70.1103 51.8981C70.2259 51.6545 70.2172 51.3869 70.0861 51.1534C69.955 50.9199 69.7121 50.7393 69.4101 50.6508Z" fill="#B3E5FC"/>
<path d="M85.4637 30.6875C85.1613 25.8309 83.032 21.2728 79.5091 17.9405C75.9862 14.6082 71.3343 12.7522 66.5 12.75C65.6106 12.75 64.7222 12.8119 63.8413 12.9352C61.8369 9.04393 58.8107 5.78046 55.0921 3.4998C51.3734 1.21915 47.1046 0.00865179 42.75 0C42.5057 0 42.2421 0.00159412 42.0736 0.0159379C37.2769 0.137873 32.6308 1.72656 28.7528 4.57078C24.8748 7.41499 21.9488 11.38 20.3638 15.9386C17.044 16.0007 13.8809 17.3706 11.5536 19.7544C9.22635 22.1381 7.92056 25.3454 7.9167 28.6875C7.91695 29.1754 7.94534 29.6628 8.00172 30.1474C5.61069 31.3348 3.59553 33.1692 2.18219 35.4449C0.76886 37.7206 0.0132325 40.3475 3.44808e-05 43.0313C-0.00552298 45.5565 0.660809 48.0372 1.9298 50.2156C2.06957 50.4545 2.26892 50.6526 2.50811 50.7902C2.7473 50.9278 3.01803 51.0001 3.29352 51H21.1534C21.5305 51 21.8953 50.8645 22.182 50.6178C22.4688 50.3712 22.6586 50.0296 22.7174 49.6546C23.1743 46.7507 24.6456 44.1063 26.8667 42.1969C29.0877 40.2875 31.9127 39.2384 34.8335 39.2384C37.7543 39.2384 40.5793 40.2875 42.8004 42.1969C45.0214 44.1063 46.4927 46.7507 46.9496 49.6546C47.0084 50.0296 47.1982 50.3712 47.485 50.6178C47.7717 50.8645 48.1365 51 48.5137 51H91.422C91.6767 51.0001 91.9276 50.9383 92.1535 50.8199C92.3793 50.7015 92.5735 50.5299 92.7194 50.3198C94.2074 48.1848 95.0039 45.6392 95 43.0313C94.9895 40.2021 94.0479 37.4562 92.3225 35.2229C90.5972 32.9895 88.1852 31.3946 85.4637 30.6875Z" fill="#9CD5F2"/>
<path d="M16.8209 68.1063C16.6726 68.0403 16.5128 68.0043 16.3506 68.0004C16.1884 67.9964 16.027 68.0246 15.8757 68.0832C15.7244 68.1419 15.586 68.2299 15.4686 68.3423C15.3512 68.4546 15.257 68.5891 15.1915 68.738L9.1057 82.4861C8.9731 82.7867 8.96494 83.1278 9.08301 83.4344C9.20107 83.741 9.4357 83.988 9.73526 84.121C10.0348 84.2541 10.3748 84.2623 10.6804 84.1438C10.986 84.0253 11.2321 83.7899 11.3647 83.4894L17.4628 69.7288C17.591 69.4281 17.5955 69.0888 17.4752 68.7848C17.3549 68.4808 17.1197 68.2369 16.8209 68.1063ZM25.9681 68.1063C25.8198 68.0403 25.66 68.0043 25.4978 68.0004C25.3356 67.9964 25.1742 68.0246 25.0229 68.0832C24.8715 68.1419 24.7332 68.2299 24.6158 68.3423C24.4984 68.4546 24.4042 68.5891 24.3386 68.738L12.1794 96.259C12.1138 96.4079 12.078 96.5682 12.0741 96.7309C12.0702 96.8936 12.0983 97.0555 12.1568 97.2073C12.2152 97.3591 12.3029 97.4979 12.4148 97.6157C12.5267 97.7335 12.6607 97.8281 12.809 97.8939C12.9573 97.9598 13.1171 97.9957 13.2793 97.9996C13.4415 98.0035 13.6028 97.9754 13.7541 97.9167C13.9054 97.8581 14.0437 97.7701 14.1612 97.6578C14.2786 97.5455 14.3728 97.4111 14.4385 97.2623L26.6347 69.7412C26.6993 69.5901 26.7334 69.4276 26.7348 69.2632C26.7362 69.0988 26.705 68.9358 26.6429 68.7836C26.5809 68.6314 26.4893 68.4931 26.3734 68.3768C26.2575 68.2606 26.1198 68.1686 25.9681 68.1063ZM44.2748 68.1063C44.1265 68.0403 43.9666 68.0043 43.8045 68.0004C43.6423 67.9964 43.4809 68.0246 43.3296 68.0832C43.1782 68.1419 43.0399 68.2299 42.9225 68.3423C42.8051 68.4546 42.7109 68.5891 42.6453 68.738L30.4368 96.259C30.3711 96.4079 30.3353 96.5682 30.3314 96.7309C30.3275 96.8936 30.3556 97.0555 30.4141 97.2073C30.4725 97.3591 30.5602 97.4979 30.6721 97.6157C30.784 97.7335 30.918 97.8281 31.0663 97.8939C31.2146 97.9598 31.3745 97.9957 31.5366 97.9996C31.6988 98.0035 31.8601 97.9754 32.0114 97.9167C32.1627 97.8581 32.3011 97.7701 32.4185 97.6578C32.5359 97.5455 32.6301 97.4111 32.6958 97.2623L44.892 69.7412C45.0256 69.4422 45.0356 69.1023 44.92 68.7958C44.8043 68.4894 44.5723 68.2415 44.2748 68.1063ZM35.1153 68.1063C34.967 68.0403 34.8071 68.0043 34.6449 68.0004C34.4827 67.9964 34.3214 68.0246 34.17 68.0832C34.0187 68.1419 33.8804 68.2299 33.763 68.3423C33.6456 68.4546 33.5514 68.5891 33.4858 68.738L27.3877 82.4861C27.2551 82.7867 27.2469 83.1278 27.365 83.4344C27.4831 83.741 27.7177 83.988 28.0173 84.121C28.3168 84.2541 28.6568 84.2623 28.9624 84.1438C29.268 84.0253 29.5141 83.7899 29.6467 83.4894L35.7448 69.7288C35.8738 69.4297 35.88 69.0916 35.7621 68.7878C35.6443 68.4841 35.4119 68.2392 35.1153 68.1063Z" fill="#B3E5FC"/>
<path d="M50.7543 51.1283C50.7252 50.5592 50.6682 49.9921 50.5837 49.4291C50.0152 45.6851 48.1834 42.2754 45.4179 39.8136C42.6524 37.3518 39.1348 35.9995 35.4979 36C31.8611 36.0005 28.3438 37.3538 25.579 39.8163C22.8141 42.2788 20.9831 45.689 20.4155 49.4332C20.3316 49.9949 20.2749 50.5606 20.2457 51.1283C17.8309 52.0374 15.7437 53.7002 14.2682 55.8902C12.7927 58.0802 12.0007 60.691 12 63.3671C12 63.8002 12.1651 64.2155 12.4589 64.5217C12.7527 64.828 13.1512 65 13.5667 65H57.4333C57.8488 65 58.2473 64.828 58.5411 64.5217C58.8349 64.2155 59 63.8002 59 63.3671C58.9993 60.691 58.2073 58.0802 56.7318 55.8902C55.2563 53.7002 53.1691 52.0374 50.7543 51.1283Z" fill="#B2EBF2"/>
</svg>
