<svg width="123" height="123" viewBox="0 0 123 123" fill="none" xmlns="http://www.w3.org/2000/svg">
<path d="M54.6667 6.83333C54.6667 6.83333 54.6667 0 61.5001 0C68.3334 0 68.3334 6.83333 68.3334 6.83333V13.6667C68.3334 13.6667 68.3334 20.5 61.5001 20.5C54.6667 20.5 54.6667 13.6667 54.6667 13.6667V6.83333Z" fill="#FFAC33"/>
<path d="M116.167 54.6667C116.167 54.6667 123 54.6667 123 61.5C123 68.3334 116.167 68.3334 116.167 68.3334H109.333C109.333 68.3334 102.5 68.3334 102.5 61.5C102.5 54.6667 109.333 54.6667 109.333 54.6667H116.167Z" fill="#FFAC33"/>
<path d="M13.6667 54.6667C13.6667 54.6667 20.5 54.6667 20.5 61.5C20.5 68.3334 13.6667 68.3334 13.6667 68.3334H6.83333C6.83333 68.3334 0 68.3334 0 61.5C0 54.6667 6.83333 54.6667 6.83333 54.6667H13.6667Z" fill="#FFAC33"/>
<path d="M31.1634 24.9213C31.1634 24.9213 35.9946 29.7525 31.1634 34.5836C26.3322 39.4148 21.5011 34.5836 21.5011 34.5836L16.6665 29.7525C16.6665 29.7525 11.8353 24.9213 16.6665 20.0867C21.5011 15.2556 26.3322 20.0867 26.3322 20.0867L31.1634 24.9213Z" fill="#FFAC33"/>
<path d="M102.913 96.6677C102.913 96.6677 107.745 101.499 102.913 106.33C98.0822 111.161 93.2511 106.33 93.2511 106.33L88.4199 101.499C88.4199 101.499 83.5887 96.6677 88.4199 91.8365C93.2511 87.0053 98.0822 91.8365 98.0822 91.8365L102.913 96.6677Z" fill="#FFAC33"/>
<path d="M101.502 34.58C101.502 34.58 96.6712 39.4112 91.8401 34.58C87.0089 29.7488 91.8401 24.9177 91.8401 24.9177L96.6712 20.0865C96.6712 20.0865 101.502 15.2553 106.334 20.0865C111.165 24.9177 106.334 29.7488 106.334 29.7488L101.502 34.58Z" fill="#FFAC33"/>
<path d="M29.7524 106.33C29.7524 106.33 24.9212 111.161 20.0901 106.33C15.2589 101.499 20.0901 96.6677 20.0901 96.6677L24.9212 91.8365C24.9212 91.8365 29.7524 87.0053 34.5836 91.8365C39.4147 96.6677 34.5836 101.499 34.5836 101.499L29.7524 106.33Z" fill="#FFAC33"/>
<path d="M54.6667 109.333C54.6667 109.333 54.6667 102.5 61.5001 102.5C68.3334 102.5 68.3334 109.333 68.3334 109.333V116.167C68.3334 116.167 68.3334 123 61.5001 123C54.6667 123 54.6667 116.167 54.6667 116.167V109.333Z" fill="#FFAC33"/>
<path d="M95.6667 61.5C95.6667 42.6297 80.3669 27.3333 61.5 27.3333C42.6298 27.3333 27.3334 42.6297 27.3334 61.5C27.3334 80.3668 42.6298 95.6666 61.5 95.6666C80.3669 95.6666 95.6667 80.3668 95.6667 61.5Z" fill="#FFAC33"/>
</svg>
