<svg width="310" height="63" viewBox="0 0 310 73" fill="none" xmlns="http://www.w3.org/2000/svg">
<path d="M0.312102 50.46L0 50L49 50.0366L48.6879 50.4966L48.3758 50.9564L48.0637 51.4158L47.7516 51.8746L47.4395 52.3327L47.1274 52.7899L46.8153 53.2459L46.5032 53.7006L46.1911 54.1539L45.879 54.6055L45.5669 55.0552L45.2548 55.503L44.9427 55.9485L44.6306 56.3916L44.3185 56.8322L44.0064 57.2701L43.6943 57.7051L43.3822 58.1369L43.0701 58.5655L42.758 58.9907L42.4459 59.4123L42.1338 59.8302L41.8217 60.244L41.5096 60.6538L41.1975 61.0594L40.8853 61.4605L40.5732 61.857L40.2611 62.2488L39.949 62.6357L39.6369 63.0175L39.3248 63.3942L39.0127 63.7654L38.7006 64.1312L38.3885 64.4913L38.0764 64.8456L37.7643 65.194L37.4522 65.5363L37.1401 65.8724L36.828 66.2021L36.5159 66.5254L36.2038 66.842L35.8917 67.1519L35.5796 67.455L35.2675 67.7511L34.9554 68.04L34.6433 68.3218L34.3312 68.5962L34.0191 68.8632L33.707 69.1226L33.3949 69.3744L33.0828 69.6185L32.7707 69.8547L32.4586 70.0829L32.1465 70.3031L31.8344 70.5152L31.5223 70.7191L31.2102 70.9147L30.8981 71.102L30.586 71.2808L30.2739 71.4511L29.9618 71.6128L29.6497 71.7658L29.3376 71.9102L29.0255 72.0458L28.7134 72.1725L28.4013 72.3105L28.0892 72.3994L27.7771 72.4995L27.465 72.5905L27.1529 72.6725L26.8408 72.7454L26.5287 72.8093L26.2166 72.864L25.9045 72.9095L25.5924 72.9459L25.2803 72.9731L24.9682 72.9912L24.6561 73L24.3439 72.9996L24.0318 72.9901L23.7197 72.9713L23.4076 72.9434L23.0955 72.9062L22.7834 72.8599L22.4713 72.8045L22.1592 72.74L21.8471 72.6663L21.535 72.5836L21.2229 72.4918L20.9108 72.3911L20.5987 72.2814L20.2866 72.1628L19.9745 72.0353L19.6624 71.899L19.3503 71.754L19.0382 71.6002L18.7261 71.4378L18.414 71.2668L18.1019 71.0874L17.7898 70.8995L17.4777 70.7032L17.1656 70.4986L16.8535 70.2859L16.5414 70.065L16.2293 69.8361L15.9172 69.5993L15.6051 69.3547L15.293 69.1022L14.9809 68.8422L14.6688 68.5746L14.3567 68.2996L14.0446 68.0173L13.7325 67.7277L13.4204 67.4311L13.1083 67.1275L12.7962 66.8171L12.4841 66.4999L12.172 66.1761L11.8599 65.8459L11.5478 65.5093L11.2357 65.1665L10.9236 64.8176L10.6115 64.4629L10.2994 64.1023L9.98726 63.7361L9.67516 63.3644L9.36306 62.9873L9.05096 62.6051L8.73885 62.2178L8.42675 61.8256L8.11465 61.4287L7.80255 61.0273L7.49045 60.6214L7.17834 60.2112L6.86624 59.797L6.55414 59.3789L6.24204 58.957L5.92994 58.5315L5.61783 58.1026L5.30573 57.6705L4.99363 57.2353L4.68153 56.7973L4.36943 56.3564L4.05732 55.9131L3.74522 55.4674L3.43312 55.0195L3.12102 54.5696L2.80892 54.1179L2.49682 53.6645L2.18471 53.2096L1.87261 52.7535L1.56051 52.2963L1.24841 51.8381L0.936306 51.3792L0.624204 50.9198L0.312102 50.46Z" fill="#001F70"/>
<path d="M49.5987 49.5L49 50L237 49.9204L236.401 49.4204L235.803 48.9205L235.204 48.4206L234.605 47.921L234.006 47.4215L233.408 46.9223L232.809 46.4234L232.21 45.9249L231.611 45.4268L231.013 44.9291L230.414 44.4319L229.815 43.9353L229.217 43.4393L228.618 42.944L228.019 42.4494L227.42 41.9555L226.822 41.4624L226.223 40.9702L225.624 40.4789L225.025 39.9885L224.427 39.4991L223.828 39.0108L223.229 38.5236L222.631 38.0375L222.032 37.5527L221.433 37.069L220.834 36.5867L220.236 36.1057L219.637 35.6261L219.038 35.1479L218.439 34.6712L217.841 34.1961L217.242 33.7225L216.643 33.2506L216.045 32.7803L215.446 32.3118L214.847 31.845L214.248 31.38L213.65 30.9169L213.051 30.4558L212.452 29.9965L211.854 29.5393L211.255 29.0841L210.656 28.631L210.057 28.18L209.459 27.7313L208.86 27.2847L208.261 26.8404L207.662 26.3985L207.064 25.9589L206.465 25.5217L205.866 25.0869L205.268 24.6546L204.669 24.2249L204.07 23.7978L203.471 23.3732L202.873 22.9514L202.274 22.5322L201.675 22.1158L201.076 21.7022L200.478 21.2914L199.879 20.8835L199.28 20.4784L198.682 20.0764L198.083 19.6773L197.484 19.2813L196.885 18.8883L196.287 18.4985L195.688 18.1118L195.089 17.7282L194.49 17.348L193.892 16.9709L193.293 16.5972L192.694 16.2268L192.096 15.8598L191.497 15.4962L190.898 15.1361L190.299 14.7795L189.701 14.4263L189.102 14.0767L188.503 13.7308L187.904 13.3884L187.306 13.0497L186.707 12.7147L186.108 12.3835L185.51 12.056L184.911 11.7322L184.312 11.4124L183.713 11.0963L183.115 10.7842L182.516 10.476L181.917 10.1717L181.318 9.87143L180.72 9.57517L180.121 9.28294L179.522 8.99479L178.924 8.71074L178.325 8.43082L177.726 8.15505L177.127 7.88346L176.529 7.6161L175.93 7.35297L175.331 7.09409L174.732 6.83952L174.134 6.58926L173.535 6.34334L172.936 6.10179L172.338 5.86462L171.739 5.63187L171.14 5.40355L170.541 5.1797L169.943 4.96033L169.344 4.74546L168.745 4.53511L168.146 4.32932L167.548 4.12809L166.949 3.93145L166.35 3.73941L165.752 3.552L165.153 3.36924L164.554 3.19113L163.955 3.01771L163.357 2.84899L162.758 2.68498L162.159 2.52571L161.561 2.37118L160.962 2.22141L160.363 2.07642L159.764 1.93623L159.166 1.80084L158.567 1.67027L157.968 1.54453L157.369 1.42364L156.771 1.3076L156.172 1.19644L155.573 1.09016L154.975 0.988762L154.376 0.892273L153.777 0.80069L153.178 0.714027L152.58 0.632298L151.981 0.555496L151.382 0.483646L150.783 0.416748L150.185 0.354805L149.586 0.297829L148.987 0.245819L148.389 0.198784L147.79 0.156738L147.191 0.119667L146.592 0.0875854L145.994 0.0604973L145.395 0.0384064L144.796 0.0213051L144.197 0.00920486L143.599 0.0021019L143 0L142.401 0.00289917L141.803 0.0107956L141.204 0.0236931L140.605 0.0415916L140.006 0.0644798L139.408 0.0923653L138.809 0.125237L138.21 0.163097L137.611 0.20594L137.013 0.253769L136.414 0.306568L135.815 0.364338L135.217 0.427071L134.618 0.494759L134.019 0.567398L133.42 0.644981L132.822 0.727501L132.223 0.814945L131.624 0.90731L131.025 1.00458L130.427 1.10675L129.828 1.21382L129.229 1.32576L128.631 1.44257L128.032 1.56423L127.433 1.69073L126.834 1.82207L126.236 1.95823L125.637 2.09919L125.038 2.24495L124.439 2.39547L123.841 2.55075L123.242 2.71078L122.643 2.87555L122.045 3.04502L121.446 3.21918L120.847 3.39803L120.248 3.58154L119.65 3.76968L119.051 3.96246L118.452 4.15983L117.854 4.36179L117.255 4.56831L116.656 4.77938L116.057 4.99496L115.459 5.21505L114.86 5.43962L114.261 5.66864L113.662 5.9021L113.064 6.13996L112.465 6.38221L111.866 6.62883L111.268 6.87978L110.669 7.13504L110.07 7.39459L109.471 7.6584L108.873 7.92644L108.274 8.19869L107.675 8.47512L107.076 8.7557L106.478 9.04041L105.879 9.32921L105.28 9.62209L104.682 9.91899L104.083 10.2199L103.484 10.5248L102.885 10.8336L102.287 11.1464L101.688 11.463L101.089 11.7835L100.49 12.1079L99.8917 12.436L99.293 12.7678L98.6943 13.1034L98.0955 13.4427L97.4968 13.7856L96.8981 14.1322L96.2994 14.4823L95.7006 14.836L95.1019 15.1932L94.5032 15.5539L93.9045 15.9181L93.3057 16.2856L92.707 16.6565L92.1083 17.0308L91.5096 17.4083L90.9108 17.7891L90.3121 18.1731L89.7134 18.5603L89.1146 18.9507L88.5159 19.3441L87.9172 19.7407L87.3185 20.1402L86.7197 20.5428L86.121 20.9482L85.5223 21.3566L84.9236 21.7679L84.3248 22.1819L83.7261 22.5988L83.1274 23.0184L82.5287 23.4407L81.9299 23.8656L81.3312 24.2932L80.7325 24.7233L80.1338 25.156L79.535 25.5911L78.9363 26.0287L78.3376 26.4687L77.7389 26.911L77.1401 27.3557L76.5414 27.8026L75.9427 28.2517L75.3439 28.703L74.7452 29.1565L74.1465 29.612L73.5478 30.0695L72.949 30.5291L72.3503 30.9906L71.7516 31.454L71.1529 31.9192L70.5541 32.3863L69.9554 32.8551L69.3567 33.3256L68.758 33.7978L68.1592 34.2717L67.5605 34.7471L66.9618 35.224L66.3631 35.7024L65.7643 36.1822L65.1656 36.6634L64.5669 37.146L63.9682 37.6298L63.3694 38.1149L62.7707 38.6011L62.172 39.0885L61.5732 39.577L60.9745 40.0665L60.3758 40.5571L59.7771 41.0485L59.1783 41.5409L58.5796 42.0341L57.9809 42.5281L57.3822 43.0228L56.7834 43.5183L56.1847 44.0144L55.586 44.5111L54.9873 45.0083L54.3885 45.5061L53.7898 46.0043L53.1911 46.5029L52.5924 47.0018L51.9936 47.501L51.3949 48.0005L50.7962 48.5002L50.1975 49.0001L49.5987 49.5Z" fill="#7CC9F2"/>
<line x1="49.5" y1="50" x2="49.5" y2="8" stroke="#C4C4C4" stroke-dasharray="2 2"/>
<line y1="49.5" x2="310" y2="49.5" stroke="#C4C4C4" stroke-dasharray="2 2"/>
<line x1="237.5" y1="50" x2="237.5" y2="8" stroke="#C4C4C4" stroke-dasharray="2 2"/>
</svg>
