<svg width="16" height="15" viewBox="0 0 16 15" fill="none" xmlns="http://www.w3.org/2000/svg">
<path d="M0.926701 14.8179C0.12988 14.8179 -0.221379 14.2391 0.145453 13.5318L6.89767 0.530457C7.2645 -0.17682 7.8658 -0.17682 8.23306 0.530457L14.9853 13.5318C15.353 14.2391 15.0013 14.8179 14.204 14.8179H0.926701Z" fill="#FFCC4D"/>
<path d="M6.60042 4.28871C6.60042 3.72549 7.01614 3.37683 7.56595 3.37683C8.10279 3.37683 8.53192 3.7389 8.53192 4.28871V9.45291C8.53192 10.0027 8.10279 10.3648 7.56595 10.3648C7.01614 10.3648 6.60042 10.0157 6.60042 9.45291V4.28871ZM6.51953 12.202C6.51953 11.6254 6.98932 11.156 7.56595 11.156C8.14259 11.156 8.61238 11.6254 8.61238 12.202C8.61238 12.7791 8.14259 13.2484 7.56595 13.2484C6.98932 13.2484 6.51953 12.7791 6.51953 12.202Z" fill="#231F20"/>
</svg>
